Coordinates
version=1
nRows=54
nColumns=12
inDegrees=yes

Units are S.I. units (second, meters, Newtons, ...)
Angles are in degrees

endheader
time	SC_y	SC_z	SC_x	AC_y	AC_z	AC_x	GH_y	GH_z	GH_yy	EL_x	PS_y
       0.0              -23.88          29.54          6.589          37.37          9.807          16.27         -60.85          8.574         -74.37          132.5          28.62
   0.01593              -23.88          29.54          6.592          37.37          9.805          16.27         -60.84          8.585         -74.35          132.5          28.63
   0.03186              -23.88          29.54          6.596          37.37          9.803          16.26         -60.82          8.596         -74.32          132.4          28.63
   0.04779              -23.89          29.54          6.599          37.37          9.801          16.26         -60.79          8.608          -74.3          132.4          28.64
   0.06372              -23.89          29.54          6.603          37.38          9.799          16.25         -60.77           8.62         -74.27          132.4          28.65
   0.07965              -23.89          29.54          6.607          37.38          9.796          16.25         -60.75          8.634         -74.24          132.4          28.65
   0.09558              -23.89          29.54          6.612          37.38          9.794          16.24         -60.72          8.648         -74.21          132.4          28.66
    0.1115              -23.89          29.54          6.616          37.39          9.791          16.24         -60.69          8.663         -74.18          132.4          28.67
    0.1274               -23.9          29.54          6.621          37.39          9.788          16.23         -60.66           8.68         -74.14          132.3          28.68
    0.1434               -23.9          29.54          6.626          37.39          9.785          16.23         -60.63          8.697          -74.1          132.3          28.69
    0.1593               -23.9          29.54          6.632           37.4          9.781          16.22          -60.6          8.716         -74.06          132.3           28.7
    0.1752               -23.9          29.54          6.638           37.4          9.778          16.21         -60.56          8.737         -74.02          132.3          28.71
    0.1912              -23.91          29.54          6.645           37.4          9.774          16.21         -60.52          8.759         -73.97          132.2          28.73
    0.2071              -23.91          29.54          6.652          37.41          9.769           16.2         -60.48          8.782         -73.92          132.2          28.74
     0.223              -23.92          29.54           6.66          37.41          9.765          16.19         -60.43          8.808         -73.86          132.2          28.75
    0.2389              -23.92          29.54          6.668          37.42           9.76          16.18         -60.38          8.836          -73.8          132.1          28.77
    0.2549              -23.92          29.54          6.677          37.43          9.754          16.17         -60.33          8.866         -73.74          132.1          28.79
    0.2708              -23.93          29.54          6.687          37.43          9.748          16.16         -60.27          8.899         -73.67          132.0          28.81
    0.2867              -23.93          29.54          6.698          37.44          9.742          16.14         -60.21          8.935         -73.59          132.0          28.83
    0.3027              -23.94          29.54           6.71          37.45          9.734          16.13         -60.13          8.974          -73.5          131.9          28.85
    0.3186              -23.95          29.54          6.723          37.45          9.727          16.12         -60.06          9.018         -73.41          131.9          28.87
    0.3345              -23.95          29.54          6.737          37.46          9.718           16.1         -59.97          9.065          -73.3          131.8           28.9
    0.3504              -23.96          29.54          6.753          37.47          9.708          16.08         -59.88          9.118         -73.19          131.7          28.93
    0.3664              -23.97          29.54          6.771          37.49          9.698          16.06         -59.77          9.176         -73.06          131.7          28.96
    0.3823              -23.98          29.54           6.79           37.5          9.686          16.04         -59.65          9.241         -72.92          131.6           29.0
    0.3982              -23.99          29.55          6.812          37.51          9.673          16.01         -59.52          9.313         -72.77          131.5          29.04
    0.4142               -24.0          29.55          6.836          37.53          9.658          15.99         -59.38          9.394         -72.59          131.4          29.09
    0.4301              -24.02          29.55          6.864          37.55          9.642          15.95         -59.22          9.485         -72.39          131.3          29.14
     0.446              -24.03          29.55          6.895          37.57          9.623          15.92         -59.03          9.588         -72.17          131.1           29.2
     0.462              -24.05          29.55           6.93          37.59          9.602          15.88         -58.82          9.705         -71.91          131.0          29.27
    0.4779              -24.07          29.55           6.97          37.62          9.578          15.83         -58.58          9.838         -71.63          130.8          29.34
    0.4938              -24.09          29.55          7.016          37.65           9.55          15.78         -58.31          9.991         -71.29          130.6          29.43
    0.5097              -24.12          29.55           7.07          37.68          9.518          15.72         -57.99          10.17         -70.91          130.4          29.53
    0.5257              -24.15          29.55          7.132          37.72          9.481          15.65         -57.62          10.37         -70.46          130.1          29.65
    0.5416              -24.19          29.55          7.204          37.77          9.437          15.56         -57.19          10.61         -69.94          129.8          29.79
    0.5575              -24.23          29.55          7.289          37.82          9.386          15.47         -56.68           10.9         -69.33          129.4          29.95
    0.5735              -24.28          29.56          7.391          37.89          9.325          15.35         -56.07          11.23         -68.59          128.9          30.14
    0.5894              -24.34          29.56          7.512          37.97          9.252          15.21         -55.35          11.64         -67.72          128.4          30.37
    0.6053              -24.41          29.56          7.659          38.06          9.163          15.04         -54.47          12.12         -66.66          127.8          30.65
    0.6213               -24.5          29.56          7.839          38.18          9.055          14.84          -53.4          12.72         -65.36          127.0          30.99
    0.6372              -24.61          29.57          8.061          38.32          8.922          14.58         -52.07          13.46         -63.76          126.0          31.41
    0.6531              -24.75          29.57          8.338           38.5          8.755          14.26         -50.42          14.37         -61.77          124.8          31.94
     0.669              -24.92          29.58          8.686          38.73          8.546          13.86         -48.34          15.53         -59.26          123.3           32.6
     0.685              -25.14          29.59          9.129          39.02          8.279          13.36          -45.7           17.0         -56.06          121.3          33.44
    0.7009              -25.42           29.6          9.696          39.38          7.938          12.71         -42.32          18.88         -51.98          118.8          34.51
    0.7168              -25.78          29.61          10.42          39.86          7.501          11.87         -37.98          21.29         -46.73          115.6          35.89
    0.7328              -26.24          29.63          11.35          40.46          6.942          10.81         -32.43          24.38         -40.03          111.5          37.65
    0.7487              -26.82          29.65          12.52          41.22          6.239          9.466         -25.46          28.25         -31.61          106.4          39.87
    0.7646              -27.53          29.67          13.94          42.14          5.383          7.833         -16.96          32.98         -21.35          100.1          42.57
    0.7805              -28.35           29.7           15.6          43.21           4.39           5.94         -7.115          38.45         -9.448           92.9           45.7
    0.7965              -29.23          29.73          17.38          44.38          3.315           3.89          3.549          44.38          3.436          85.04          49.09
    0.8124              -30.12          29.76          19.17          45.54           2.24          1.841          14.21          50.31          16.32          77.19          52.47
    0.8283              -30.94          29.79          20.82          46.61          1.247       -0.05225          24.06          55.79          28.22          69.94           55.6
    0.8443              -31.64          29.82          22.24          47.53          0.391         -1.685          32.56          60.51          38.48          63.68           58.3
